<?xml version="1.0" encoding="UTF-8" standalone="no"?>
<svg
   width="600"
   height="595"
   viewBox="0 0 600 595"
   version="1.1"
   id="svg52"
   sodipodi:docname="all-clients.svg"
   inkscape:version="1.3.2 (091e20ef0f, 2023-11-25, custom)"
   xmlns:inkscape="http://www.inkscape.org/namespaces/inkscape"
   xmlns:sodipodi="http://sodipodi.sourceforge.net/DTD/sodipodi-0.dtd"
   xmlns:xlink="http://www.w3.org/1999/xlink"
   xmlns="http://www.w3.org/2000/svg"
   xmlns:svg="http://www.w3.org/2000/svg">
  <sodipodi:namedview
     id="namedview54"
     pagecolor="#ffffff"
     bordercolor="#666666"
     borderopacity="1.0"
     inkscape:pageshadow="2"
     inkscape:pageopacity="0.0"
     inkscape:pagecheckerboard="0"
     showgrid="false"
     inkscape:zoom="1.396525"
     inkscape:cx="204.79404"
     inkscape:cy="324.01854"
     inkscape:window-width="1920"
     inkscape:window-height="1039"
     inkscape:window-x="0"
     inkscape:window-y="0"
     inkscape:window-maximized="0"
     inkscape:current-layer="svg52"
     inkscape:showpageshadow="0"
     inkscape:deskcolor="#505050" />
  <defs
     id="defs5">
    <path
       id="a"
       d="M0 .9h242.898v228.749H0z" />
    <path
       id="c"
       d="M0 .9h161.932v122.147H0z" />
    <path
       id="e"
       d="M0 .9H142.26v122.147H0z" />
    <filter
       inkscape:collect="always"
       style="color-interpolation-filters:sRGB"
       id="filter856"
       x="-0.0801581"
       y="-0.27288335"
       width="1.1603162"
       height="1.5457667">
      <feGaussianBlur
         inkscape:collect="always"
         stdDeviation="11.368338"
         id="feGaussianBlur858" />
    </filter>
  </defs>
  <path
     d="m 273.22523,159.66761 h -9.26793 l -10.64549,-30.20503 -5.97781,16.5222 h 9.20053 l 2.52762,7.19107 h -13.97352 l -2.41809,6.50019 h -9.26793 l 14.78656,-38.37766 h 10.24107 z m 165.24304,0 v -7.19106 h -16.2273 v -31.17396 h -8.2274 v 38.37766 z m 47.42233,0 v -7.19106 h -16.21888 v -31.17396 h -8.24004 v 38.37766 z M 368.44482,128.16928 a 12.338989,12.338989 0 1 0 12.33899,12.33899 12.351628,12.351628 0 0 0 -12.33899,-12.33899 m 0,-7.51123 a 19.850229,19.850229 0 1 1 -19.84602,19.85022 19.850229,19.850229 0 0 1 19.85023,-19.85022 z m 155.26738,7.51123 a 12.338989,12.338989 0 1 0 12.33898,12.33899 12.351628,12.351628 0 0 0 -12.33898,-12.33899 m 0,-7.51123 a 19.850229,19.850229 0 1 1 -19.85023,19.85022 19.850229,19.850229 0 0 1 19.85023,-19.85022 z m -196.31169,13.21943 c 0,6.82036 -5.52706,12.58333 -12.35163,12.58333 h -9.71447 v 13.2068 h -8.17264 v -38.37766 h 17.90397 c 6.81193,0 12.33898,5.76296 12.33898,12.58332 z m -7.51124,0 c 0,-2.66663 -2.16954,-5.05524 -4.84039,-5.05524 h -9.71447 v 10.12733 h 9.73133 c 2.65821,0 4.83196,-2.40545 4.83196,-5.0763 z m -29.78798,37.43825 a 2.1063485,2.1063485 0 0 0 -1.72299,0.89309 c 0,0 -1.84095,2.10635 -2.83514,3.09633 a 45.79623,45.79623 0 1 1 -3.57659,-67.94237 5.1605539,5.1605539 0 1 0 2.89413,-3.0837 49.992076,49.992076 0 1 0 6.74032,70.65114 2.1063485,2.1063485 0 0 0 -1.49552,-3.60607 z"
     id="path854"
     style="stroke-width:0.42127;filter:url(#filter856);fill:#f4f4f4;fill-opacity:1" />
  <path
     style="fill:#000000"
     id="path8378"
     d="" />
  <g
     id="g9536"
     transform="translate(-43.046998,-2.277183)">
    <text
       fill="#8196ff"
       font-family="Helvetica-Bold, Helvetica"
       font-size="53.9098px"
       font-weight="bold"
       letter-spacing="2"
       id="text15"
       style="fill-rule:evenodd;stroke-width:1.05706"
       x="142.94635"
       y="-185.71237"><tspan
         x="378.66989"
         y="304.76163"
         id="tspan13"
         style="stroke-width:1.05706">URQL</tspan></text>
    <g
       id="g9513">
      <g
         transform="matrix(0.36391771,0,0,0.36391771,246.23197,244.29317)"
         id="g22"
         style="fill:none;fill-rule:evenodd">
        <mask
           id="b"
           fill="#ffffff">
          <use
             xlink:href="#a"
             id="use17"
             x="0"
             y="0"
             width="100%"
             height="100%" />
        </mask>
        <path
           fill="#8196ff"
           d="m 135.063,169.782 45.166,45.214 v 14.653 l 15.112,-14.763 -33.75,-33.789 v -18.136 l 15.537,15.556 40.898,0.117 24.872,24.897 v -26.5 c 0,-8.98 -3.564,-17.594 -9.908,-23.944 L 161.932,81.952 90.508,10.452 a 32.556,32.556 0 0 0 -46.073,0 L 0,54.934 h 26.658 c 7.23,-7.238 18.953,-7.238 26.183,0 l 0.316,0.316 54.296,54.354 H 80.768 L 53.157,81.964 v 12.537 a 33.79,33.79 0 0 0 9.88,23.88 l 18.009,18.028 26.685,26.712 a 21.14,21.14 0 0 0 6.181,14.94 l 21.104,21.129 13.528,13.54 -0.104,12.55 12.751,-11.127 v 14.391 l 14.571,-13.888 -40.699,-40.743"
           mask="url(#b)"
           id="path20" />
      </g>
      <g
         transform="matrix(0.36391771,0,0,0.36391771,305.16189,244.29317)"
         id="g29"
         style="fill:none;fill-rule:evenodd">
        <mask
           id="d"
           fill="#ffffff">
          <use
             xlink:href="#c"
             id="use24"
             x="0"
             y="0"
             width="100%"
             height="100%" />
        </mask>
        <path
           fill="#647bed"
           d="m 0,81.952 71.424,-71.5 a 32.556,32.556 0 0 1 46.073,0 l 44.435,44.482 h -26.658 c -7.23,-7.238 -18.953,-7.238 -26.183,0 l -0.316,0.316 -67.724,67.797"
           mask="url(#d)"
           id="path27" />
      </g>
      <g
         transform="matrix(0.36391771,0,0,0.36391771,268.33051,244.29317)"
         id="g36"
         style="fill:none;fill-rule:evenodd">
        <mask
           id="f"
           fill="#ffffff">
          <use
             xlink:href="#e"
             id="use31"
             x="0"
             y="0"
             width="100%"
             height="100%" />
        </mask>
        <path
           fill="#a2b1ff"
           d="M 142.259,123.047 101.208,81.952 29.783,10.452 A 32.562,32.562 0 0 0 6.747,0.898 C 4.461,0.9 2.202,1.146 0,1.614 a 32.558,32.558 0 0 1 16.29,8.837 l 71.423,71.5 41.01,41.055 13.536,0.04 z"
           mask="url(#f)"
           id="path34" />
      </g>
      <path
         fill="#a2b1ff"
         d="m 270.24144,288.44475 h 21.15635 l 4.26039,-4.26438 h -20.03367 l -10.04776,-10.05868 v 4.56243 a 12.296779,12.296779 0 0 0 3.59549,8.69036 z"
         id="path38"
         style="fill-rule:evenodd;stroke-width:0.363918" />
      <path
         fill="#4d65dd"
         d="m 325.02852,303.44435 a 1.1834604,1.1834604 0 0 0 1.18273,1.18455 1.1834604,1.1834604 0 0 0 1.1831,-1.18455 1.1834604,1.1834604 0 0 0 -1.18273,-1.18417 h -1.1831 z"
         id="path40"
         style="fill-rule:evenodd;stroke-width:0.363918" />
      <path
         fill="#647bed"
         d="m 274.41957,262.92466 c -4.70508,-4.71018 -12.33316,-4.71018 -17.03752,0 l -0.78315,0.78389 c 2.64203,-2.03431 6.44242,-1.84653 8.86285,0.57645 l 0.0451,0.0448 h 0.0699 l 24.02584,24.11936 10.20899,-0.10547 -24.1565,-24.18198 z"
         id="path42"
         style="fill-rule:evenodd;stroke-width:0.363918" />
      <path
         fill="#4d65dd"
         d="m 335.87473,262.92466 c 4.7051,-4.71018 12.33316,-4.71018 17.03753,0 l 0.78315,0.78389 c -2.64204,-2.03431 -6.4428,-1.84653 -8.86284,0.57645 l -0.0451,0.0448 h -0.0698 l -24.63105,24.7282 -5.15853,-5.16399 19.71051,-19.73235 z m -54.9454,36.21965 4.50786,4.51258 a 7.6932203,7.6932203 0 0 0 2.24938,5.43656 l 7.68011,7.68849 4.92308,4.92781 -0.0379,4.56716 4.64031,-4.04894 v 5.23714 l 5.30265,-5.05482 -14.8111,-14.82673 0.72602,-0.77733 15.71033,15.72816 v 5.33212 l 5.50025,-5.37251 -12.28294,-12.29606 v -6.60038 a 15.182647,15.182647 0 0 0 -10.74031,-4.45325 z"
         id="path44"
         style="fill-rule:evenodd;stroke-width:0.363918" />
      <path
         fill="#647bed"
         d="m 310.19488,322.41065 -14.81146,-14.82709 -8.43016,-8.43925 h -6.02393 l 4.50749,4.51258 a 7.6932203,7.6932203 0 0 0 2.24975,5.43656 l 7.68047,7.68849 4.92308,4.92817 -0.0382,4.56718 4.64067,-4.04969 v 5.23751 l 5.3023,-5.05482 z"
         id="path46"
         style="fill-rule:evenodd;stroke-width:0.363918" />
      <path
         fill="#8196ff"
         d="m 347.92076,248.09684 a 11.847705,11.847705 0 0 0 -8.3832,-3.47614 c -0.83192,0 -1.65401,0.0899 -2.45536,0.25984 a 11.844794,11.844794 0 0 1 5.92785,3.2163 l 16.17069,16.18816 h 4.91108 z"
         id="path48"
         style="fill-rule:evenodd;stroke-width:0.363918" />
    </g>
  </g>
  <path
     d="m 273.22523,159.66761 h -9.26793 l -10.64549,-30.20503 -5.97781,16.5222 h 9.20053 l 2.52762,7.19107 h -13.97352 l -2.41809,6.50019 h -9.26793 l 14.78656,-38.37766 h 10.24107 z m 165.24304,0 v -7.19106 h -16.2273 v -31.17396 h -8.2274 v 38.37766 z m 47.42233,0 v -7.19106 h -16.21888 v -31.17396 h -8.24004 v 38.37766 z M 368.44482,128.16928 a 12.338989,12.338989 0 1 0 12.33899,12.33899 12.351628,12.351628 0 0 0 -12.33899,-12.33899 m 0,-7.51123 a 19.850229,19.850229 0 1 1 -19.84602,19.85022 19.850229,19.850229 0 0 1 19.85023,-19.85022 z m 155.26738,7.51123 a 12.338989,12.338989 0 1 0 12.33898,12.33899 12.351628,12.351628 0 0 0 -12.33898,-12.33899 m 0,-7.51123 a 19.850229,19.850229 0 1 1 -19.85023,19.85022 19.850229,19.850229 0 0 1 19.85023,-19.85022 z m -196.31169,13.21943 c 0,6.82036 -5.52706,12.58333 -12.35163,12.58333 h -9.71447 v 13.2068 h -8.17264 v -38.37766 h 17.90397 c 6.81193,0 12.33898,5.76296 12.33898,12.58332 z m -7.51124,0 c 0,-2.66663 -2.16954,-5.05524 -4.84039,-5.05524 h -9.71447 v 10.12733 h 9.73133 c 2.65821,0 4.83196,-2.40545 4.83196,-5.0763 z m -29.78798,37.43825 a 2.1063485,2.1063485 0 0 0 -1.72299,0.89309 c 0,0 -1.84095,2.10635 -2.83514,3.09633 a 45.79623,45.79623 0 1 1 -3.57659,-67.94237 5.1605539,5.1605539 0 1 0 2.89413,-3.0837 49.992076,49.992076 0 1 0 6.74032,70.65114 2.1063485,2.1063485 0 0 0 -1.49552,-3.60607 z"
     id="path965"
     style="stroke-width:0.42127" />
  <path
     style="fill:#008000;stroke-width:0.37492"
     d="m 67.245443,142.94974 v -37.49182 h 37.179047 37.17905 l -2.21794,1.55107 c -1.21985,0.85308 -3.49822,2.54019 -5.06297,3.74917 l -2.84508,2.19811 H 103.11069 74.743803 v 29.99347 29.99345 H 104.73726 134.7307 V 160.54009 148.137 l 3.43172,-5.04401 c 1.88745,-2.77416 3.57457,-5.13225 3.74919,-5.24017 0.17447,-0.10789 0.31747,9.43043 0.31747,21.19628 v 21.39246 H 104.73726 67.245443 Z m 45.916957,19.38979 c -5.00162,-5.90754 -12.51908,-13.99815 -18.855997,-20.29372 l -6.381941,-6.34024 2.688897,-2.54831 c 1.478879,-1.40161 2.903521,-2.55542 3.165854,-2.5641 1.251657,-0.0413 11.495567,5.80206 16.803777,9.58528 l 2.28401,1.62783 4.27707,-4.72457 c 9.91448,-10.95187 19.19899,-19.00946 31.08368,-26.9761 l 6.93601,-4.64938 0.98168,2.13739 0.98168,2.13739 -5.8875,5.83047 c -8.44792,8.36605 -13.59675,14.71378 -20.9989,25.8886 -3.32282,5.01634 -9.7643,15.62491 -13.36693,22.01422 l -1.10298,1.95608 z"
     id="path8244-5" />
  <g
     id="g11469"
     transform="matrix(1.1738265,0,0,1.1738265,-55.907925,-168.17328)"
     style="fill:#d45500">
    <text
       xml:space="preserve"
       style="font-style:normal;font-weight:normal;font-size:34.1496px;line-height:1.25;font-family:sans-serif;letter-spacing:0px;word-spacing:0px;fill:#d45500;fill-opacity:1;stroke:none;stroke-width:0.85374"
       x="228.72771"
       y="513.59827"
       id="text1"><tspan
         sodipodi:role="line"
         id="tspan1"
         x="228.72771"
         y="513.59827"
         style="font-style:normal;font-variant:normal;font-weight:normal;font-stretch:normal;font-family:Consolas;-inkscape-font-specification:Consolas;stroke-width:0.85374;fill:#d45500">graphql-request</tspan></text>
  </g>
  <path
     style="fill:#008000;stroke-width:0.374919"
     d="m 67.245463,283.96727 v -37.49181 h 37.179027 37.17904 l -2.21795,1.55108 c -1.21984,0.85308 -3.49821,2.54019 -5.06296,3.74916 l -2.84508,2.19812 H 103.11069 74.74382 v 29.99345 29.99344 h 29.99344 29.99343 v -12.4031 -12.40308 l 3.43172,-5.04401 c 1.88745,-2.77416 3.57457,-5.13225 3.74919,-5.24017 0.17447,-0.10789 0.31747,9.43042 0.31747,21.19628 v 21.39244 H 104.73726 67.245463 Z m 45.916937,19.38978 c -5.00162,-5.90754 -12.51908,-13.99814 -18.855989,-20.29371 l -6.381938,-6.34024 2.688896,-2.54831 c 1.478878,-1.4016 2.90352,-2.55541 3.165852,-2.56409 1.251657,-0.0413 11.495549,5.80205 16.803759,9.58528 l 2.28401,1.62782 4.27707,-4.72457 c 9.91448,-10.95186 19.19899,-19.00945 31.08368,-26.97609 l 6.936,-4.64937 0.98168,2.13739 0.98168,2.13739 -5.8875,5.83046 c -8.44791,8.36605 -13.59675,14.71377 -20.99889,25.88859 -3.32282,5.01634 -9.76429,15.6249 -13.36693,22.01421 l -1.10297,1.95608 z"
     id="path11739" />
  <path
     style="fill:#008000;stroke-width:0.376731"
     d="m 67.028236,424.98478 v -37.67303 h 37.358744 37.35874 l -2.22867,1.55858 c -1.22573,0.8572 -3.51511,2.55247 -5.08743,3.76729 l -2.85882,2.20874 H 103.06682 74.562837 v 30.13842 30.13842 h 30.138423 30.1384 v -12.46305 -12.46303 l 3.44831,-5.06839 c 1.89658,-2.78757 3.59185,-5.15705 3.76731,-5.2655 0.17531,-0.10841 0.319,9.476 0.319,21.29873 V 462.6578 H 104.70126 67.028236 Z m 46.138884,19.48351 c -5.02579,-5.93609 -12.57959,-14.06581 -18.947134,-20.39181 l -6.412786,-6.37088 2.701894,-2.56063 c 1.486027,-1.40838 2.917554,-2.56776 3.181154,-2.57648 1.257708,-0.0415 11.551122,5.83009 16.884982,9.6316 l 2.29505,1.6357 4.29775,-4.74741 c 9.9624,-11.0048 19.29179,-19.10134 31.23392,-27.10648 l 6.96953,-4.67184 0.98642,2.14771 0.98643,2.14772 -5.91596,5.85865 c -8.48874,8.40648 -13.66247,14.7849 -21.10039,26.01373 -3.33888,5.04058 -9.81149,15.70042 -13.43153,22.12062 l -1.10831,1.96553 z"
     id="path11741" />
</svg>
