<?xml version="1.0" encoding="UTF-8" standalone="no"?>
<!-- Created with Inkscape (http://www.inkscape.org/) -->

<svg
   width="106.01493mm"
   height="71.344971mm"
   viewBox="0 0 106.01493 71.344971"
   version="1.1"
   id="svg5"
   sodipodi:docname="logo.svg"
   inkscape:version="1.1.2 (0a00cf5339, 2022-02-04)"
   xmlns:inkscape="http://www.inkscape.org/namespaces/inkscape"
   xmlns:sodipodi="http://sodipodi.sourceforge.net/DTD/sodipodi-0.dtd"
   xmlns="http://www.w3.org/2000/svg"
   xmlns:svg="http://www.w3.org/2000/svg">
  <sodipodi:namedview
     id="namedview7"
     pagecolor="#ffffff"
     bordercolor="#666666"
     borderopacity="1.0"
     inkscape:pageshadow="2"
     inkscape:pageopacity="0.0"
     inkscape:pagecheckerboard="0"
     inkscape:document-units="mm"
     showgrid="false"
     inkscape:zoom="1.4482494"
     inkscape:cx="276.19552"
     inkscape:cy="235.11144"
     inkscape:window-width="1916"
     inkscape:window-height="1038"
     inkscape:window-x="0"
     inkscape:window-y="18"
     inkscape:window-maximized="1"
     inkscape:current-layer="layer1"
     fit-margin-top="0"
     fit-margin-left="0"
     fit-margin-right="0"
     fit-margin-bottom="0" />
  <defs
     id="defs2" />
  <g
     inkscape:label="Layer 1"
     inkscape:groupmode="layer"
     id="layer1"
     transform="translate(-57.637783,-93.499158)">
    <path
       style="fill:#007acc;fill-opacity:1;stroke-width:0.0355757"
       d="m 88.840268,164.80892 c -2.730909,-0.21062 -5.065114,-2.24695 -5.667668,-4.94439 -0.19712,-0.88243 -0.203432,-1.86563 -0.01731,-2.70096 0.04143,-0.18587 0.07725,-0.37558 0.07966,-0.42156 0.0038,-0.0749 -0.746356,-0.51728 -7.199705,-4.2454 -3.962242,-2.289 -7.255458,-4.18713 -7.318253,-4.21807 l -0.114172,-0.0563 -0.269465,0.25596 c -1.898336,1.80324 -4.792714,2.213 -7.186539,1.01742 -0.592229,-0.29579 -1.033989,-0.61136 -1.541951,-1.10149 -1.014023,-0.97843 -1.61604,-2.12385 -1.879156,-3.57536 -0.08519,-0.46996 -0.08335,-1.52074 0.0035,-2.01003 0.236978,-1.33483 0.806363,-2.46676 1.706444,-3.39239 0.782333,-0.80455 1.623788,-1.32941 2.662799,-1.66092 l 0.418015,-0.13337 v -8.45941 c 0,-8.02604 -0.0032,-8.46032 -0.06226,-8.47728 -0.03424,-0.01 -0.182325,-0.0524 -0.329075,-0.0945 -0.83244,-0.23918 -1.794776,-0.79613 -2.474549,-1.43213 -2.245994,-2.10137 -2.667085,-5.56743 -0.986378,-8.11904 0.385222,-0.58483 0.716306,-0.96008 1.222093,-1.38511 2.482359,-2.08601 6.098911,-1.9849 8.483583,0.23719 l 0.250246,0.23319 7.319089,-4.22084 c 6.923609,-3.99277 7.318316,-4.22564 7.30483,-4.30977 -0.0079,-0.0489 -0.04793,-0.24103 -0.08915,-0.42691 -0.334744,-1.510467 -0.048,-3.234849 0.760122,-4.571479 1.63224,-2.69966 4.952179,-3.808724 7.862457,-2.626547 1.925822,0.782286 3.346685,2.46274 3.80237,4.497068 0.196771,0.878467 0.203053,1.860138 0.01731,2.700958 -0.04105,0.18588 -0.08177,0.37799 -0.09044,0.42691 -0.01497,0.0844 0.354739,0.30277 7.301985,4.31241 l 7.31776,4.22347 0.25309,-0.23484 c 1.34039,-1.24371 3.09198,-1.86765 4.84177,-1.72472 2.74102,0.2239 4.99449,2.0962 5.68813,4.72599 0.25976,0.98482 0.26732,2.17039 0.0201,3.14782 -0.45264,1.7894 -1.64805,3.29627 -3.27789,4.13192 -0.34635,0.17758 -0.93085,0.40254 -1.26462,0.48671 l -0.1512,0.0381 v 8.46043 8.46043 l 0.41802,0.13337 c 2.19029,0.69885 3.81776,2.47821 4.3128,4.71534 0.17018,0.76905 0.18455,1.7561 0.0365,2.50809 -0.5279,2.68179 -2.5944,4.68536 -5.28836,5.12733 -0.55929,0.0918 -1.49617,0.0846 -2.04044,-0.0155 -1.33681,-0.24599 -2.46151,-0.8217 -3.38105,-1.73066 l -0.30375,-0.30026 -7.28437,4.20503 c -6.407222,3.69869 -7.281934,4.2136 -7.264169,4.27619 0.222974,0.78565 0.282514,1.19672 0.280813,1.93888 -0.0023,1.08224 -0.199244,1.91276 -0.678507,2.86384 -0.867817,1.72216 -2.502159,2.97053 -4.400222,3.36107 -0.30898,0.0636 -1.168104,0.15104 -1.355887,0.13803 -0.03916,-0.003 -0.240225,-0.018 -0.44687,-0.0339 z m 12.527072,-14.8284 c 3.98057,-2.2973 7.25093,-4.18869 7.26747,-4.20309 0.0166,-0.0144 0.01,-0.11592 -0.0145,-0.22559 l -0.0446,-0.1994 H 89.374868 70.174103 l -0.02245,0.11242 c -0.0124,0.0618 -0.01807,0.11679 -0.0127,0.12217 0.02684,0.0268 14.623955,8.44585 14.643233,8.44561 0.0124,0 0.166555,-0.12953 0.342651,-0.28749 1.336633,-1.19898 3.152197,-1.78788 4.919741,-1.59578 1.439422,0.15645 2.8156,0.80744 3.782328,1.78918 0.125091,0.12704 0.244451,0.22825 0.265256,0.22492 0.02079,-0.003 3.294666,-1.88565 7.275228,-4.18295 z m 7.30699,-8.07002 c 0.27281,-0.85503 0.74336,-1.6782 1.35268,-2.36633 l 0.30762,-0.3474 -9.57554,-16.58662 c -5.266539,-9.12265 -9.585985,-16.59713 -9.598769,-16.60997 -0.01278,-0.0128 -0.185523,0.0135 -0.383867,0.0585 -0.924167,0.20984 -1.876578,0.20984 -2.800753,0 -0.198336,-0.045 -0.370267,-0.0714 -0.382052,-0.0585 -0.01179,0.0128 -4.33087,7.48907 -9.597956,16.61385 l -9.57652,16.59051 0.205973,0.23258 c 0.382531,0.43196 0.48311,0.56018 0.711507,0.90701 0.290974,0.44188 0.571651,1.03504 0.741177,1.56637 l 0.133376,0.41801 h 19.164872 19.164882 z m -33.290254,-20.83335 9.589217,-16.60874 -0.08967,-0.0897 -0.08966,-0.0897 -7.323269,4.2262 c -4.0278,2.32441 -7.329837,4.23141 -7.337851,4.23777 -0.008,0.006 0.01981,0.16777 0.06191,0.35868 0.126269,0.57312 0.158058,0.94036 0.139189,1.608 -0.0124,0.4396 -0.04067,0.73927 -0.09536,1.01164 -0.362012,1.80306 -1.440363,3.32407 -3.02615,4.26839 -0.396512,0.23612 -0.971424,0.48592 -1.380786,0.59996 l -0.290733,0.081 -2.84e-4,8.47705 -2.85e-4,8.47706 0.08004,0.0326 c 0.04403,0.0179 0.101287,0.0294 0.127248,0.0256 0.02596,-0.004 4.362354,-7.48099 9.636418,-16.6158 z m 37.801034,16.56614 c 0.0147,-0.008 0.0267,-3.8283 0.0267,-8.48903 v -8.47407 l -0.28966,-0.0812 c -0.1593,-0.0446 -0.44347,-0.14635 -0.63146,-0.22603 -1.9623,-0.83159 -3.35668,-2.54519 -3.77697,-4.64163 -0.15227,-0.75949 -0.13403,-1.85109 0.0438,-2.62275 0.0401,-0.17421 0.059,-0.32817 0.0421,-0.34494 -0.0167,-0.0167 -3.31914,-1.92902 -7.33867,-4.24969 l -7.308239,-4.2194 -0.08495,0.0849 -0.08496,0.085 9.595229,16.61895 c 9.37666,16.2404 9.59734,16.61845 9.68782,16.59689 0.051,-0.0122 0.1046,-0.0288 0.11927,-0.037 z"
       id="path5290" />
    <text
       xml:space="preserve"
       style="font-style:normal;font-weight:normal;font-size:25.9789px;line-height:1.25;font-family:sans-serif;letter-spacing:0px;word-spacing:0px;fill:#007acc;fill-opacity:1;stroke:none;stroke-width:0.649473"
       x="124.4814"
       y="146.12318"
       id="text4270"><tspan
         sodipodi:role="line"
         id="tspan4268"
         style="fill:#007acc;fill-opacity:1;stroke-width:0.649473"
         x="124.4814"
         y="146.12318">.TS</tspan></text>
  </g>
</svg>
