<?xml version="1.0" encoding="UTF-8" standalone="no"?>
<svg
   width="600"
   height="595"
   viewBox="0 0 600 595"
   version="1.1"
   id="svg52"
   sodipodi:docname="type-inference.svg"
   inkscape:version="1.1.2 (0a00cf5339, 2022-02-04)"
   xmlns:inkscape="http://www.inkscape.org/namespaces/inkscape"
   xmlns:sodipodi="http://sodipodi.sourceforge.net/DTD/sodipodi-0.dtd"
   xmlns="http://www.w3.org/2000/svg"
   xmlns:svg="http://www.w3.org/2000/svg">
  <sodipodi:namedview
     id="namedview54"
     pagecolor="#ffffff"
     bordercolor="#666666"
     borderopacity="1.0"
     inkscape:pageshadow="2"
     inkscape:pageopacity="0.0"
     inkscape:pagecheckerboard="0"
     showgrid="false"
     inkscape:zoom="0.76933304"
     inkscape:cx="57.192396"
     inkscape:cy="290.51138"
     inkscape:window-width="1916"
     inkscape:window-height="1038"
     inkscape:window-x="0"
     inkscape:window-y="18"
     inkscape:window-maximized="1"
     inkscape:current-layer="svg52" />
  <defs
     id="defs5">
    <path
       id="a"
       d="M0 .9h242.898v228.749H0z" />
    <path
       id="c"
       d="M0 .9h161.932v122.147H0z" />
    <path
       id="e"
       d="M0 .9H142.26v122.147H0z" />
  </defs>
  <path
     style="fill:#000000"
     id="path8378"
     d="" />
  <g
     id="g12170"
     transform="translate(0.34376109,3.3513158)"
     style="opacity:0.67236049">
    <path
       style="fill:#fefefe"
       d="M 42.759365,297.33249 V 41.332493 h 255.999995 256 v 255.999997 256 h -256 H 42.759365 Z M 396.75936,543.24846 c 6.04775,-2.74179 8.81278,-5.45766 11.62258,-11.41597 2.24903,-4.76917 2.35788,-5.99259 2.35788,-26.5 0,-20.50741 -0.10885,-21.73083 -2.35788,-26.5 -2.8098,-5.95831 -5.57483,-8.67418 -11.62258,-11.41597 -4.1657,-1.88855 -6.48867,-2.04174 -31.2695,-2.06207 l -26.76949,-0.022 0.26949,-21.71446 0.2695,-21.71445 35.24935,-22.03555 c 19.38713,-12.11955 35.24935,-22.26054 35.24935,-22.53554 0,-0.275 -15.86222,-10.41609 -35.24935,-22.53575 l -35.24935,-22.03575 -0.26688,-25.71425 -0.26687,-25.71425 h 24.01688 24.01688 v -32 -32 h -24 -24 v -28 -28 h 32 32 v -56 -55.999997 h -72 -72 v 55.999997 56 h 32 32 v 28 28 h -24 -24 v 12 12 h -36 -36 v 8 8 h 36 36 v 12 12 h 24.01688 24.01688 l -0.26688,25.71425 -0.26689,25.71425 -35.24933,22.03575 c -19.38715,12.11966 -35.24936,22.26075 -35.24936,22.53575 0,0.275 15.86221,10.41599 35.24935,22.53554 l 35.24934,22.03555 0.2695,21.71445 0.2695,21.71446 -26.7695,0.022 c -24.78082,0.0203 -27.10379,0.17352 -31.2695,2.06207 -6.04775,2.74179 -8.81278,5.45766 -11.62258,11.41597 -2.25048,4.77225 -2.35732,5.97934 -2.34568,26.5 0.011,19.48824 0.20309,21.92107 2.0523,26 2.74179,6.04775 5.45766,8.81278 11.41596,11.62258 l 5,2.35788 61.5,-0.0122 c 59.75212,-0.0119 61.62789,-0.0702 66,-2.0523 z m -106,-293.91597 v -16 h 40 40 v 16 16 h -40 -40 z m -71.48718,237.01283 -18.97406,-18.99379 -5.77566,5.71539 -5.77565,5.71539 9.23652,9.27509 9.23653,9.27509 h -34.63523 -34.63522 l -2.69941,-4.6062 c -1.68544,-2.87598 -4.53833,-5.74933 -7.59502,-7.64947 l -4.89561,-3.04328 v -84.35053 -84.35052 h -8 -8 v 84.35052 84.35053 l -4.89562,3.04328 c -15.823163,9.83622 -14.461549,34.05811 2.35475,41.8888 11.17327,5.20295 23.79672,1.72158 30.4936,-8.40971 l 3.45273,-5.22342 h 34.52751 34.52752 l -9.2263,9.26482 -9.2263,9.26482 5.73899,5.73899 5.73899,5.73899 19.0005,-19.0005 19.0005,-19.00049 z m 223.48718,18.98717 v -8 h -8 -8 v 8 8 h 8 8 z m 32,0 v -8 h -8 -8 v 8 8 h 8 8 z m 32,0 v -8 h -8 -8 v 8 8 h 8 8 z m -51.22397,-110.72491 -9.23653,-9.27509 h 26.52752 26.52751 l 3.45274,5.22342 c 6.69687,10.13129 19.32033,13.61266 30.4936,8.40971 16.81629,-7.83069 18.17792,-32.05258 2.35474,-41.8888 l -4.89561,-3.04328 V 241.33249 128.63144 l 4.89561,-3.04327 c 15.82318,-9.83623 14.46156,-34.058117 -2.35474,-41.888806 -11.17327,-5.202951 -23.79672,-1.721579 -30.49359,8.409706 l -3.45274,5.223423 h -40.29726 -40.29728 v 7.999997 8 h 40.40499 40.40498 l 2.69941,4.6062 c 1.68544,2.87599 4.53833,5.74933 7.59502,7.64947 l 4.8956,3.04328 v 112.7555 112.75551 l -4.6062,2.69941 c -2.87598,1.68544 -5.74932,4.53833 -7.64947,7.59502 l -3.04328,4.89561 h -26.58078 -26.58077 l 9.23653,-9.27509 9.23652,-9.27509 -5.77565,-5.71539 -5.77566,-5.71539 -18.97075,18.99048 -18.97074,18.99048 18.97075,18.99048 18.97075,18.99048 5.77566,-5.71539 5.77565,-5.71539 z M 150.41012,274.27442 c 18.86629,-13.44306 34.30277,-24.66693 34.30328,-24.94193 7.5e-4,-0.397 -39.41858,-28.77435 -65.10698,-46.86951 l -4.78346,-3.36951 -34.984977,24.86951 c -19.241738,13.67823 -34.984714,25.09451 -34.984391,25.36951 0.0011,0.9338 69.400188,49.93523 70.329978,49.65872 0.50831,-0.15117 16.36026,-11.27373 35.22655,-24.71679 z m 28.34924,-152.94193 v -8 h -8 -8 v 8 8 h 8 8 z m 32,0 v -8 h -8 -8 v 8 8 h 8 8 z m 32,0 v -8 h -8 -8 v 8 8 h 8 8 z"
       id="path12186" />
    <path
       style="fill:#efcfb3"
       d="M 274.75936,105.33249 V 65.332493 h 56 56 v 39.999997 40 h -56 -56 z m 64,16 v -8 h -24 -24 v 8 8 h 24 24 z m 32,0 v -8 h -8 -8 v 8 8 h 8 8 z m 0,-31.999997 v -8 h -40 -40 v 8 8 h 40 40 z"
       id="path12184" />
    <path
       style="fill:#fad56e"
       d="m 306.54834,392.565 c -13.04105,-8.10288 -23.71148,-14.95751 -23.71203,-15.23251 -5.8e-4,-0.275 10.78189,-7.18629 23.96101,-15.35842 l 23.96204,-14.85842 23.96204,14.85842 c 13.17913,8.17213 23.96205,15.08342 23.96205,15.35842 0,0.51143 -47.23221,30.0142 -48.00023,29.98251 -0.23312,-0.01 -11.09382,-6.64712 -24.13488,-14.75 z M 93.759365,264.20783 c -10.725,-7.71026 -19.5,-14.40476 -19.5,-14.87666 0,-1.08437 38.985555,-28.99868 40.500005,-28.99868 1.51561,0 40.49999,27.91474 40.49999,29 0,1.20469 -39.08759,29.01182 -40.68986,28.94699 -0.72057,-0.0291 -10.08514,-6.3614 -20.810135,-14.07165 z"
       id="path12182" />
    <path
       style="fill:#f8876a"
       d="m 112.22465,512.37165 c -7.61752,-3.05279 -5.62119,-14.37249 2.53472,-14.37249 4.05196,0 7.33333,3.28136 7.33333,7.33333 0,5.01123 -5.36999,8.84179 -9.86805,7.03916 z m 407.99999,-128 c -7.61751,-3.05279 -5.62117,-14.37249 2.53472,-14.37249 4.05197,0 7.33334,3.28136 7.33334,7.33333 0,5.01123 -5.36999,8.84179 -9.86806,7.03916 z m 0,-272 c -7.61751,-3.05279 -5.62117,-14.37249 2.53472,-14.37249 4.05197,0 7.33334,3.28137 7.33334,7.33333 0,5.01123 -5.36999,8.8418 -9.86806,7.03916 z"
       id="path12180" />
    <path
       style="fill:#5ad4b1"
       d="m 269.21392,526.87794 c -2.43465,-2.43463 -2.45456,-2.60942 -2.45456,-21.54545 0,-18.93603 0.0199,-19.11082 2.45456,-21.54545 l 2.45453,-2.45455 h 59.09091 59.09091 l 2.45455,2.45455 c 2.43464,2.43463 2.45454,2.60942 2.45454,21.54545 0,18.93603 -0.0199,19.11082 -2.45454,21.54545 l -2.45455,2.45455 h -59.09091 -59.09091 z"
       id="path12178" />
    <path
       style="fill:#9f9f9f"
       d="m 194.22807,537.08249 -5.96871,-6.25 6.25,5.9687 c 5.80572,5.54441 6.70761,6.5313 5.96871,6.5313 -0.15472,0 -2.96722,-2.8125 -6.25,-6.25 z m 62.93628,1 -1.90499,-2.25 2.25,1.90499 c 2.11444,1.79022 2.70524,2.59501 1.90499,2.59501 -0.18975,0 -1.20226,-1.0125 -2.25,-2.25 z m 146.09501,0.25 c 0.9955,-1.1 2.03499,-2 2.30998,-2 0.275,0 -0.31448,0.9 -1.30998,2 -0.99549,1.1 -2.03498,2 -2.30998,2 -0.27499,0 0.31449,-0.9 1.30998,-2 z m -306.095007,-16.25 -1.904988,-2.25 2.25,1.90499 c 1.2375,1.04774 2.25,2.06024 2.25,2.25 0,0.80025 -0.804794,0.20945 -2.595012,-1.90499 z m 97.095007,-48.75 c 3.26557,-3.3 6.16239,-6 6.43739,-6 0.275,0 -2.17182,2.7 -5.43739,6 -3.26557,3.3 -6.16238,6 -6.43739,6 -0.275,0 2.17182,-2.7 5.43739,-6 z m 63,-1 c 0.9955,-1.1 2.03499,-2 2.30998,-2 0.275,0 -0.31448,0.9 -1.30998,2 -0.99549,1.1 -2.03498,2 -2.30998,2 -0.275,0 0.31449,-0.9 1.30998,-2 z m 145.90499,-0.25 -1.90499,-2.25 2.25,1.90499 c 1.23751,1.04774 2.25,2.06024 2.25,2.25 0,0.80025 -0.80479,0.20945 -2.59501,-1.90499 z m 55.09501,-62.75 c 3.26558,-3.3 6.1624,-6 6.43739,-6 0.275,0 -2.17182,2.7 -5.43739,6 -3.26557,3.3 -6.16239,6 -6.43739,6 -0.27499,0 2.17183,-2.7 5.43739,-6 z m 81,-15 c 0.9955,-1.1 2.03499,-2 2.30998,-2 0.275,0 -0.31448,0.9 -1.30998,2 -0.99549,1.1 -2.03498,2 -2.30998,2 -0.27499,0 0.31449,-0.9 1.30998,-2 z m -81.03129,-49.25 -5.96871,-6.25 6.25,5.9687 c 5.80572,5.54441 6.70761,6.5313 5.96871,6.5313 -0.15472,0 -2.96722,-2.8125 -6.25,-6.25 z m 80.93628,-256.999997 -1.90499,-2.25 2.25,1.904988 c 1.23751,1.047743 2.25,2.060243 2.25,2.25 0,0.800253 -0.80479,0.209457 -2.59501,-1.904988 z"
       id="path12176" />
    <path
       style="fill:#bb6650"
       d="m 108.63181,510.58249 c -1.24387,-1.58606 -1.2085,-1.62143 0.37756,-0.37756 0.9625,0.75485 1.75,1.54235 1.75,1.75 0,0.82304 -0.82119,0.29331 -2.12756,-1.37244 z m 10.12756,1.37244 c 0,-0.20765 0.78749,-0.99515 1.75,-1.75 1.58605,-1.24387 1.62142,-1.2085 0.37755,0.37756 -1.30637,1.66575 -2.12755,2.19548 -2.12755,1.37244 z m -11,-11 c 0,-0.20765 0.78749,-0.99515 1.75,-1.75 1.58605,-1.24387 1.62142,-1.2085 0.37755,0.37756 -1.30637,1.66575 -2.12755,2.19548 -2.12755,1.37244 z m 11.87244,-1.37244 c -1.24387,-1.58606 -1.2085,-1.62143 0.37756,-0.37756 0.9625,0.75485 1.75,1.54235 1.75,1.75 0,0.82304 -0.82119,0.29331 -2.12756,-1.37244 z m 396.99999,-117 c -1.24387,-1.58606 -1.20849,-1.62143 0.37756,-0.37756 1.66575,1.30637 2.19548,2.12756 1.37244,2.12756 -0.20765,0 -0.99514,-0.7875 -1.75,-1.75 z m 10.12756,1.37244 c 0,-0.20765 0.78751,-0.99515 1.75,-1.75 1.58606,-1.24387 1.62144,-1.2085 0.37757,0.37756 -1.30638,1.66575 -2.12757,2.19548 -2.12757,1.37244 z m -11,-11 c 0,-0.20765 0.78751,-0.99515 1.75,-1.75 1.58606,-1.24387 1.62144,-1.2085 0.37757,0.37756 -1.30638,1.66575 -2.12757,2.19548 -2.12757,1.37244 z m 11.87244,-1.37244 c -1.24387,-1.58606 -1.20849,-1.62143 0.37756,-0.37756 0.9625,0.75485 1.75,1.54235 1.75,1.75 0,0.82304 -0.82119,0.29331 -2.12756,-1.37244 z m -11,-261 c -1.24387,-1.58605 -1.20849,-1.62142 0.37756,-0.37755 1.66575,1.30637 2.19548,2.12755 1.37244,2.12755 -0.20765,0 -0.99514,-0.7875 -1.75,-1.75 z m 10.12756,1.37245 c 0,-0.20766 0.78751,-0.99516 1.75,-1.75 1.58606,-1.24387 1.62144,-1.2085 0.37757,0.37755 -1.30638,1.66575 -2.12757,2.19548 -2.12757,1.37245 z m -11,-11 c 0,-0.20766 0.78751,-0.995158 1.75,-1.750002 1.58606,-1.243871 1.62144,-1.208501 0.37757,0.377555 -1.30638,1.665747 -2.12757,2.195477 -2.12757,1.372447 z m 11.87244,-1.372447 c -1.24387,-1.586056 -1.20849,-1.621426 0.37756,-0.377555 1.66575,1.306372 2.19548,2.127552 1.37244,2.127552 -0.20765,0 -0.99514,-0.7875 -1.75,-1.749997 z"
       id="path12174" />
    <path
       style="fill:#010101"
       d="m 269.25936,544.41589 c -6.92617,-1.72881 -12.49174,-6.24154 -16.13584,-13.0834 -1.65994,-3.11658 -1.86416,-5.96486 -1.86416,-26 0,-20.03514 0.20422,-22.88342 1.86416,-26 2.60912,-4.89867 6.45537,-8.81598 11.13584,-11.34158 3.76988,-2.03425 5.5677,-2.17692 31.25,-2.47997 l 27.25,-0.32155 v -21.81138 -21.81139 l -35,-21.86239 c -19.25,-12.02432 -35,-22.0916 -35,-22.37174 0,-0.28014 15.75,-10.34742 35,-22.37174 l 35,-21.86239 v -25.88294 -25.88293 h -24 -24 v -12 -12 h -36 -36 v -8 -8 h 36 36 v -12 -12 h 24 24 v -28 -28 h -32 -32 v -56 -55.999997 h 72 72 v 55.999997 56 h -32 -32 v 28 28 h 24 24 v 32 32 h -24 -24 v 25.88293 25.88294 l 35,21.86239 c 19.25,12.02432 35,22.0916 35,22.37174 0,0.28014 -15.75,10.34742 -35,22.37174 l -35,21.86239 v 21.81139 21.81138 l 27.25,0.32155 c 25.6823,0.30305 27.48012,0.44572 31.25,2.47997 4.68048,2.5256 8.52673,6.44291 11.13584,11.34158 1.65994,3.11658 1.86416,5.96486 1.86416,26 0,20.03514 -0.20422,22.88342 -1.86416,26 -2.60912,4.89867 -6.45537,8.81598 -11.13584,11.34158 -3.96172,2.13777 -4.57887,2.16001 -64.5,2.32453 -33.27499,0.0914 -61.85,-0.17086 -63.5,-0.58271 z m 123.04546,-17.53795 c 2.43464,-2.43463 2.45454,-2.60942 2.45454,-21.54545 0,-18.93603 -0.0199,-19.11082 -2.45454,-21.54545 l -2.45455,-2.45455 h -59.09091 -59.09091 l -2.45454,2.45455 c -2.43464,2.43463 -2.45455,2.60942 -2.45455,21.54545 0,18.93603 0.0199,19.11082 2.45456,21.54545 l 2.45453,2.45455 h 59.09091 59.09091 z M 355.36363,392.7146 c 12.86764,-8.03984 23.39573,-14.96179 23.39573,-15.38211 0,-1.50749 -47.10735,-30.20533 -48.8081,-29.73393 -2.77315,0.76865 -46.6919,28.76127 -46.6919,29.76016 0,1.11648 45.43933,29.81507 47.35426,29.90803 0.74484,0.0362 11.88234,-6.51231 24.75001,-14.55215 z m 15.39573,-143.38211 v -16 h -40 -40 v 16 16 h 40 40 z m 16,-144 V 65.332493 h -56 -56 v 39.999997 40 h 56 56 z m -96,16 v -8 h 24 24 v 8 8 h -24 -24 z m 64,0 v -8 h 8 8 v 8 8 h -8 -8 z m -64,-31.999997 v -8 h 40 40 v 8 8 h -40 -40 z m -96.00663,447.493287 -5.43831,-5.50672 8.95162,-8.99328 8.95162,-8.99329 h -35.06863 -35.06864 l -1.03751,2.2771 c -6.64837,14.59158 -27.4621,17.87702 -38.419353,6.06448 -4.516317,-4.86884 -6.217647,-9.30998 -6.260195,-16.34158 -0.05757,-9.51387 4.884515,-17.53166 13.118938,-21.28351 l 2.2771,-1.03752 v -84.83949 -84.83948 h 8 8 l 0.0316,84.75 0.0316,84.75 4.4921,2.72629 c 2.59757,1.57648 5.64191,4.62081 7.21839,7.21839 l 2.72629,4.4921 34.97915,0.0316 34.97915,0.0316 -8.96328,-9.005 -8.96328,-9.005 5.7379,-5.7379 5.7379,-5.7379 18.73949,18.7395 18.7395,18.73949 -18.48313,18.50341 c -10.16573,10.17689 -18.72807,18.50342 -19.02743,18.50342 -0.29937,0 -2.99154,-2.47802 -5.98261,-5.50671 z m -74.44791,-25.94784 c 4.96019,-4.96019 1.44542,-13.54545 -5.54545,-13.54545 -4.1111,0 -8,3.8889 -8,8 0,4.1111 3.8889,8 8,8 1.94837,0 3.99821,-0.90731 5.54545,-2.45455 z m 306.45454,-5.54545 v -8 h 8 8 v 8 8 h -8 -8 z m 32,0 v -8 h 8 8 v 8 8 h -8 -8 z m 32,0 v -8 h 8 8 v 8 8 h -8 -8 z m -57.0034,-109.5034 -18.48313,-18.50341 18.7395,-18.73949 18.73949,-18.7395 5.73791,5.7379 5.7379,5.7379 -8.96328,9.005 -8.96328,9.005 26.97915,-0.0316 26.97915,-0.0316 2.72629,-4.4921 c 1.57648,-2.59758 4.62081,-5.64191 7.21839,-7.21839 l 4.4921,-2.72629 v -113.5 -113.5 l -4.4921,-2.72628 c -2.59758,-1.57649 -5.64191,-4.62082 -7.21839,-7.21839 l -2.7263,-4.49213 -40.75,-0.0316 -40.75,-0.0316 v -8 -7.999997 h 40.83948 40.83949 l 1.03752,-2.277098 c 3.75186,-8.23442 11.76964,-13.176503 21.28351,-13.118935 13.83763,0.08373 23.30224,9.549639 23.39284,23.39603 0.0622,9.51242 -4.87884,17.53053 -13.11573,21.28352 l -2.27711,1.03751 v 113.67897 113.67897 l 2.27711,1.03752 c 8.23442,3.75185 13.17649,11.76964 13.11892,21.28351 -0.0837,13.83762 -9.54963,23.30224 -23.39603,23.39284 -9.51242,0.0622 -17.53053,-4.87884 -21.2835,-13.11574 l -1.03753,-2.2771 h -27.06864 -27.06863 l 8.95162,8.99329 8.95162,8.99328 -5.43831,5.50672 c -2.99107,3.02869 -5.68323,5.50671 -5.98261,5.50671 -0.29935,0 -8.86169,-8.32653 -19.02742,-18.5034 z m 94.54885,-12.95115 c 1.54725,-1.54723 2.45455,-3.59708 2.45455,-5.54545 0,-1.94837 -0.9073,-3.99822 -2.45455,-5.54545 -1.54722,-1.54724 -3.59708,-2.45455 -5.54545,-2.45455 -1.94836,0 -3.99822,0.90731 -5.54544,2.45455 -1.54725,1.54723 -2.45456,3.59708 -2.45456,5.54545 0,1.94837 0.90731,3.99822 2.45456,5.54545 1.54722,1.54724 3.59708,2.45455 5.54544,2.45455 1.94837,0 3.99823,-0.90731 5.54545,-2.45455 z m 0,-271.99999 c 4.9602,-4.96019 1.44542,-13.545457 -5.54545,-13.545457 -4.11109,0 -8,3.888907 -8,7.999997 0,4.1111 3.88891,8 8,8 1.94837,0 3.99823,-0.9073 5.54545,-2.45454 z M 79.534574,274.02016 C 60.985939,260.71694 45.808695,249.60749 45.807366,249.33249 c -0.0051,-1.04919 67.455304,-48.5 68.952004,-48.5 1.49514,0 68.95441,47.44837 68.95441,48.5 0,0.92905 -67.30349,48.49836 -68.88582,48.68767 -0.86273,0.10322 -16.744751,-10.69678 -35.293386,-24 z m 56.867776,-9.74273 c 11.17194,-7.94472 20.31261,-14.66994 20.31261,-14.94494 0,-0.86731 -40.72208,-29.5 -41.95559,-29.5 -1.23469,0 -41.956951,28.63405 -41.953776,29.5 0.0035,0.94841 41.452786,30.00033 42.367446,29.69544 0.50418,-0.16806 10.05737,-6.80578 21.22931,-14.7505 z m 26.35701,-142.94494 v -8 h 8 8 v 8 8 h -8 -8 z m 32,0 v -8 h 8 8 v 8 8 h -8 -8 z m 32,0 v -8 h 8 8 v 8 8 h -8 -8 z"
       id="path12172" />
  </g>
</svg>
